# xmcd CD database file
# Copyright 1993-1996 (C) Ti Kan
#
# Track frame offsets:
#    183
#    28008
#    65633
#    90583
#    116443
#    120400
#    125230
#    134493
#    163770
#    179683
#    207278
#    210483
#    232408
#    283105
#    289990
#    303083
#    320420
#
# Disc length: 4582 seconds
#
# Revision: 1
# Processed by: cddbd v1.4b41PL1 Copyright (c) Steve Scherf et al.
# Submitted via: MyCDplayer 2.1.9  (wjohn@fix.net)
#
DISCID=0c11e411
DTITLE=Stevie Ray Vaughan - Life Without You - Disc 4
DYEAR=1900
DGENRE=
TTITLE0=Testify (Take 4)/Third Stone From The Sun
TTITLE1=Shuffle
TTITLE2=Life Without You (Take 27)
TTITLE3=Life Without You (Take 31)
TTITLE4=You've Got Me Floating
TTITLE5=Little Wing (Take 1)
TTITLE6=Little Wing (Take 2)
TTITLE7=Little Wing (Take 3)
TTITLE8=Third Stone From The Sun (Take 1)
TTITLE9=Third Stone From The Sun (Take 2)
TTITLE10=Say What (Take 14-with organ)
TTITLE11=Come on (Part 3) (Take 4)
TTITLE12=Jam
TTITLE13=Empty Arms (Take 40-special introduction)
TTITLE14=Rude Mood
TTITLE15=Pride And Joy
TTITLE16=Untitled Blues Jam
EXTD=
EXTT0=
EXTT1=
EXTT2=
EXTT3=
EXTT4=
EXTT5=
EXTT6=
EXTT7=
EXTT8=
EXTT9=
EXTT10=
EXTT11=
EXTT12=
EXTT13=
EXTT14=
EXTT15=
EXTT16=
PLAYORDER=
